<?xml version="1.0" encoding="UTF-8" standalone="no"?>
<svg
   data-name="Layer 1"
   width="578"
   height="578"
   viewBox="0 0 578 578"
   version="1.1"
   id="svg212"
   sodipodi:docname="me.svg"
   inkscape:version="1.2.2 (b0a8486, 2022-12-01)"
   xmlns:inkscape="http://www.inkscape.org/namespaces/inkscape"
   xmlns:sodipodi="http://sodipodi.sourceforge.net/DTD/sodipodi-0.dtd"
   xmlns="http://www.w3.org/2000/svg"
   xmlns:svg="http://www.w3.org/2000/svg">
  <defs
     id="defs216" />
  <sodipodi:namedview
     id="namedview214"
     pagecolor="#505050"
     bordercolor="#eeeeee"
     borderopacity="1"
     inkscape:showpageshadow="0"
     inkscape:pageopacity="0"
     inkscape:pagecheckerboard="0"
     inkscape:deskcolor="#505050"
     showgrid="false"
     inkscape:zoom="0.89355725"
     inkscape:cx="296.00789"
     inkscape:cy="286.49535"
     inkscape:window-width="1440"
     inkscape:window-height="900"
     inkscape:window-x="0"
     inkscape:window-y="0"
     inkscape:window-maximized="0"
     inkscape:current-layer="svg212"
     showguides="false" />
  <path
     d="m 439.0551,105.43268 h -277.5 a 9.01147,9.01147 0 0 0 -9,8.99 v 187.26 a 9.0071,9.0071 0 0 0 9,9 h 277.5 a 9.00714,9.00714 0 0 0 9,-9 v -187.26 a 9.01151,9.01151 0 0 0 -9,-8.99 z"
     fill="#3f3d56"
     id="path28" />
  <path
     d="m 492.63813,340.35243 h -391.31 a 26.82,26.82 0 0 0 0,53.64 h 391.31 a 26.76039,26.76039 0 0 0 20.12,-9.11 27.096,27.096 0 0 0 3.02,-4.18 25.54045,25.54045 0 0 0 1.75,-3.56 26.80329,26.80329 0 0 0 -24.89,-36.79 z"
     fill="#cccccc"
     id="path16" />
  <path
     d="m 517.89813,379.48243 a 289.004,289.004 0 0 1 -28.12,28.95 h -385.58 a 289.004,289.004 0 0 1 -28.119999,-28.95 z"
     fill="#3f3d56"
     id="path22" />
  <path
     d="m 329.26813,279.21243 h -64.92 a 3.17486,3.17486 0 0 0 -1.03,0.16 3.448,3.448 0 0 0 -2.43,3.3 v 102.56 h 71.85 v -102.56 a 3.46328,3.46328 0 0 0 -3.47,-3.46 z m -24.57,50.6 a 7.53127,7.53127 0 0 1 -1.56,4.6 7.665,7.665 0 0 1 -13.78,-4.6 v -11.9 a 7.67033,7.67033 0 0 1 15.34,0 z"
     fill="#2f2e41"
     id="path24" />
  <path
     d="m 260.66813,381.95243 v 9.89 a 1.93971,1.93971 0 0 0 1.93,1.94 h 68.43 a 1.94622,1.94622 0 0 0 1.93,-1.94 v -9.89 z"
     fill="#3f3d56"
     id="path26" />
  <path
     d="m 436.56562,111.89878 h -272.87 a 4.82046,4.82046 0 0 0 -4.81,4.82 v 182.62 a 4.81829,4.81829 0 0 0 4.81,4.81 h 272.87 a 4.81833,4.81833 0 0 0 4.81,-4.81 v -182.62 a 4.8205,4.8205 0 0 0 -4.81,-4.82 z"
     fill="#65ff63"
     id="path30"
     style="fill:#77ec76;fill-opacity:1" />
  <path
     d="m 384.22813,393.62243 -2.52,-11.97 a 2.99238,2.99238 0 0 0 -1.86,-2.17 2.89431,2.89431 0 0 0 -1.06,-0.2 h -157.31 a 2.89455,2.89455 0 0 0 -1.06,0.2 2.99262,2.99262 0 0 0 -1.86,2.17 l -2.52,11.97 a 2.98724,2.98724 0 0 0 2.92,3.6 h 162.34 a 2.94839,2.94839 0 0 0 2.32,-1.11 2.98494,2.98494 0 0 0 0.61,-2.49 z"
     fill="#2f2e41"
     id="path32" />
  <rect
     x="222.63113"
     y="381.4382"
     width="5"
     height="3"
     rx="0.48819"
     fill="#3f3d56"
     id="rect34" />
  <rect
     x="232.63113"
     y="381.4382"
     width="5"
     height="3"
     rx="0.48819"
     fill="#3f3d56"
     id="rect36" />
  <rect
     x="242.63113"
     y="381.4382"
     width="5"
     height="3"
     rx="0.48819"
     fill="#3f3d56"
     id="rect38" />
  <rect
     x="252.63113"
     y="381.4382"
     width="5"
     height="3"
     rx="0.48819"
     fill="#3f3d56"
     id="rect40" />
  <rect
     x="262.63113"
     y="381.4382"
     width="5"
     height="3"
     rx="0.48819"
     fill="#3f3d56"
     id="rect42" />
  <rect
     x="272.63113"
     y="381.4382"
     width="5"
     height="3"
     rx="0.48819"
     fill="#3f3d56"
     id="rect44" />
  <rect
     x="282.63113"
     y="381.4382"
     width="5"
     height="3"
     rx="0.48819"
     fill="#3f3d56"
     id="rect46" />
  <rect
     x="292.63113"
     y="381.4382"
     width="5"
     height="3"
     rx="0.48819"
     fill="#3f3d56"
     id="rect48" />
  <rect
     x="302.63113"
     y="381.4382"
     width="5"
     height="3"
     rx="0.48819"
     fill="#3f3d56"
     id="rect50" />
  <rect
     x="312.63113"
     y="381.4382"
     width="5"
     height="3"
     rx="0.48819"
     fill="#3f3d56"
     id="rect52" />
  <rect
     x="322.63113"
     y="381.4382"
     width="5"
     height="3"
     rx="0.48819"
     fill="#3f3d56"
     id="rect54" />
  <rect
     x="332.63113"
     y="381.4382"
     width="5"
     height="3"
     rx="0.48819"
     fill="#3f3d56"
     id="rect56" />
  <rect
     x="342.63113"
     y="381.4382"
     width="5"
     height="3"
     rx="0.48819"
     fill="#3f3d56"
     id="rect58" />
  <rect
     x="352.63113"
     y="381.4382"
     width="5"
     height="3"
     rx="0.48819"
     fill="#3f3d56"
     id="rect60" />
  <rect
     x="362.63113"
     y="381.4382"
     width="5"
     height="3"
     rx="0.48819"
     fill="#3f3d56"
     id="rect62" />
  <rect
     x="372.63113"
     y="381.4382"
     width="5"
     height="3"
     rx="0.48819"
     fill="#3f3d56"
     id="rect64" />
  <rect
     x="222.51297"
     y="386.4382"
     width="5"
     height="3"
     rx="0.48819"
     fill="#3f3d56"
     id="rect66" />
  <rect
     x="232.51297"
     y="386.4382"
     width="5"
     height="3"
     rx="0.48819"
     fill="#3f3d56"
     id="rect68" />
  <rect
     x="242.51297"
     y="386.4382"
     width="5"
     height="3"
     rx="0.48819"
     fill="#3f3d56"
     id="rect70" />
  <rect
     x="252.51297"
     y="386.4382"
     width="5"
     height="3"
     rx="0.48819"
     fill="#3f3d56"
     id="rect72" />
  <rect
     x="262.51297"
     y="386.4382"
     width="5"
     height="3"
     rx="0.48819"
     fill="#3f3d56"
     id="rect74" />
  <rect
     x="272.51297"
     y="386.4382"
     width="5"
     height="3"
     rx="0.48819"
     fill="#3f3d56"
     id="rect76" />
  <rect
     x="282.51297"
     y="386.4382"
     width="5"
     height="3"
     rx="0.48819"
     fill="#3f3d56"
     id="rect78" />
  <rect
     x="292.51297"
     y="386.4382"
     width="5"
     height="3"
     rx="0.48819"
     fill="#3f3d56"
     id="rect80" />
  <rect
     x="302.51297"
     y="386.4382"
     width="5"
     height="3"
     rx="0.48819"
     fill="#3f3d56"
     id="rect82" />
  <rect
     x="312.51297"
     y="386.4382"
     width="5"
     height="3"
     rx="0.48819"
     fill="#3f3d56"
     id="rect84" />
  <rect
     x="322.51297"
     y="386.4382"
     width="5"
     height="3"
     rx="0.48819"
     fill="#3f3d56"
     id="rect86" />
  <rect
     x="332.51297"
     y="386.4382"
     width="5"
     height="3"
     rx="0.48819"
     fill="#3f3d56"
     id="rect88" />
  <rect
     x="342.51297"
     y="386.4382"
     width="5"
     height="3"
     rx="0.48819"
     fill="#3f3d56"
     id="rect90" />
  <rect
     x="352.51297"
     y="386.4382"
     width="5"
     height="3"
     rx="0.48819"
     fill="#3f3d56"
     id="rect92" />
  <rect
     x="362.51297"
     y="386.4382"
     width="5"
     height="3"
     rx="0.48819"
     fill="#3f3d56"
     id="rect94" />
  <rect
     x="372.51297"
     y="386.4382"
     width="5"
     height="3"
     rx="0.48819"
     fill="#3f3d56"
     id="rect96" />
  <rect
     x="270.51297"
     y="392.4382"
     width="40"
     height="3"
     rx="0.48819"
     fill="#3f3d56"
     id="rect98" />
  <path
     d="M 420.73626,150.81912 H 165.4129 a 1.01559,1.01559 0 0 1 0,-2.03069 h 255.32336 a 1.01559,1.01559 0 0 1 0,2.03069 z"
     fill="#3f3d56"
     id="path100" />
  <ellipse
     cx="182.79309"
     cy="137.52124"
     rx="5.9504299"
     ry="6.0830402"
     fill="#3f3d56"
     id="ellipse102" />
  <ellipse
     cx="203.34911"
     cy="137.52124"
     rx="5.9504299"
     ry="6.0830402"
     fill="#3f3d56"
     id="ellipse104" />
  <ellipse
     cx="223.90514"
     cy="137.52124"
     rx="5.9504299"
     ry="6.0830402"
     fill="#3f3d56"
     id="ellipse106" />
  <path
     d="m 408.35813,132.94243 h -14.6 a 1.1053,1.1053 0 0 0 0,2.21 h 14.6 a 1.10511,1.10511 0 0 0 0,-2.21 z"
     fill="#3f3d56"
     id="path108" />
  <path
     d="m 408.35813,137.09243 h -14.6 a 1.10527,1.10527 0 0 0 0,2.21 h 14.6 a 1.10508,1.10508 0 0 0 0,-2.21 z"
     fill="#3f3d56"
     id="path110" />
  <path
     d="m 408.35813,141.24243 h -14.6 a 1.1053,1.1053 0 0 0 0,2.21 h 14.6 a 1.10511,1.10511 0 0 0 0,-2.21 z"
     fill="#3f3d56"
     id="path112" />
  <rect
     x="179.30225"
     y="174.41573"
     width="11.00609"
     height="5.7599201"
     rx="2.8799601"
     fill="#e6e6e6"
     id="rect114" />
  <rect
     x="239.30225"
     y="174.41573"
     width="11.00609"
     height="5.7599201"
     rx="2.8799601"
     fill="#e6e6e6"
     id="rect116" />
  <rect
     x="256.30225"
     y="174.41573"
     width="11.00609"
     height="5.7599201"
     rx="2.8799601"
     fill="#e6e6e6"
     id="rect118" />
  <rect
     x="195.62242"
     y="173.93556"
     width="38.3657"
     height="5.7599201"
     rx="2.8799601"
     fill="#e6e6e6"
     id="rect120" />
  <rect
     x="275.62244"
     y="173.93556"
     width="38.3657"
     height="5.7599201"
     rx="2.8799601"
     fill="#e6e6e6"
     id="rect122" />
  <rect
     x="195.30225"
     y="187.41573"
     width="11.00609"
     height="5.7599201"
     rx="2.8799601"
     fill="#e6e6e6"
     id="rect124" />
  <rect
     x="255.30225"
     y="187.41573"
     width="11.00609"
     height="5.7599201"
     rx="2.8799601"
     fill="#e6e6e6"
     id="rect126" />
  <rect
     x="272.30225"
     y="187.41573"
     width="11.00609"
     height="5.7599201"
     rx="2.8799601"
     fill="#e6e6e6"
     id="rect128" />
  <rect
     x="211.62242"
     y="186.93556"
     width="38.3657"
     height="5.7599201"
     rx="2.8799601"
     fill="#e6e6e6"
     id="rect130" />
  <rect
     x="211.30225"
     y="200.41573"
     width="11.00609"
     height="5.7599201"
     rx="2.8799601"
     fill="#e6e6e6"
     id="rect134" />
  <rect
     x="271.30225"
     y="200.41573"
     width="11.00609"
     height="5.7599201"
     rx="2.8799601"
     fill="#e6e6e6"
     id="rect136" />
  <rect
     x="227.62242"
     y="199.93556"
     width="38.3657"
     height="5.7599201"
     rx="2.8799601"
     fill="#e6e6e6"
     id="rect140" />
  <rect
     x="227.30225"
     y="213.41573"
     width="11.00609"
     height="5.7599201"
     rx="2.8799601"
     fill="#e6e6e6"
     id="rect144" />
  <rect
     x="243.62242"
     y="212.93556"
     width="38.3657"
     height="5.7599201"
     rx="2.8799601"
     fill="#e6e6e6"
     id="rect150" />
  <rect
     x="239.30225"
     y="265.10922"
     width="11.00609"
     height="5.7599201"
     rx="2.8799601"
     fill="#e6e6e6"
     id="rect152" />
  <rect
     x="256.30225"
     y="265.10922"
     width="11.00609"
     height="5.7599201"
     rx="2.8799601"
     fill="#e6e6e6"
     id="rect154" />
  <rect
     x="275.62244"
     y="265.58939"
     width="38.3657"
     height="5.7599201"
     rx="2.8799601"
     fill="#e6e6e6"
     id="rect156" />
  <rect
     x="179.30225"
     y="265.10922"
     width="11.00609"
     height="5.7599201"
     rx="2.8799601"
     fill="#e6e6e6"
     id="rect158" />
  <rect
     x="195.62242"
     y="265.58939"
     width="38.3657"
     height="5.7599201"
     rx="2.8799601"
     fill="#e6e6e6"
     id="rect160" />
  <rect
     x="195.30225"
     y="252.10924"
     width="11.00609"
     height="5.7599201"
     rx="2.8799601"
     fill="#e6e6e6"
     id="rect162" />
  <rect
     x="255.30225"
     y="252.10924"
     width="11.00609"
     height="5.7599201"
     rx="2.8799601"
     fill="#e6e6e6"
     id="rect164" />
  <rect
     x="272.30225"
     y="252.10924"
     width="11.00609"
     height="5.7599201"
     rx="2.8799601"
     fill="#e6e6e6"
     id="rect166" />
  <rect
     x="211.62242"
     y="252.5894"
     width="38.3657"
     height="5.7599201"
     rx="2.8799601"
     fill="#e6e6e6"
     id="rect168" />
  <rect
     x="211.30225"
     y="239.10924"
     width="11.00609"
     height="5.7599201"
     rx="2.8799601"
     fill="#e6e6e6"
     id="rect170" />
  <rect
     x="271.30225"
     y="239.10924"
     width="11.00609"
     height="5.7599201"
     rx="2.8799601"
     fill="#e6e6e6"
     id="rect172" />
  <rect
     x="227.62242"
     y="239.5894"
     width="38.3657"
     height="5.7599201"
     rx="2.8799601"
     fill="#e6e6e6"
     id="rect176" />
  <rect
     x="227.30225"
     y="226.10924"
     width="11.00609"
     height="5.7599201"
     rx="2.8799601"
     fill="#e6e6e6"
     id="rect178" />
  <rect
     x="243.62242"
     y="226.5894"
     width="38.3657"
     height="5.7599201"
     rx="2.8799601"
     fill="#e6e6e6"
     id="rect184" />
  <path
     d="m 423.79813,452.91243 c -0.61,0.31 -1.23,0.62 -1.84,0.92 -15.8,7.9 -28.43994,12.39 -45.73,17.31 -1.46,-16.3 -2.87,-44.95 -4.24,-62.71 -0.36,-4.61 -0.72,-8.48 -1.07,-11.21 a 15.1823,15.1823 0 0 0 -0.88,-4.25 l 0.06,4.25 0.15,11.21 0.87,64.11 a 288.58782,288.58782 0 0 1 -65.84,9.49 c -1.16,0.03 -2.3,0.05 -3.4,0.07 -0.39,0.01 -0.77,0.02 -1.15,0.02 -1.25,0.01 -2.49,0.02 -3.74,0.02 a 289.27116,289.27116 0 0 1 -69.54,-8.43 c 0.49,-16.13 0.98,-44.46 1.45,-65.28 0.1,-4.07 0.19,-7.86 0.29,-11.21 0.19,-7.16 0.39,-12.32 0.58,-14.05 a 4.36108,4.36108 0 0 0 -0.39,0.97 97.15388,97.15388 0 0 0 -1.89,13.08 c -0.35,3.35 -0.7,7.14 -1.05,11.21 -1.86,21.63 -3.8,51.04 -5.8,63.51 a 285.47262,285.47262 0 0 1 -34.97,-12.03 q -9,-3.75 -17.68,-8.09 c 1.1,-7.2 2.25,-15.27 3.43,-23.64 0.92,-6.49 1.87,-13.16 2.84,-19.75 1.5,-10.18 3.04,-20.16 4.6,-28.95 2.28,-12.84 4.62,-23.16 6.94,-27.9 2.2,-4.5 4.4,-8.94 6.53,-13.19 0.74,-1.49 1.48,-2.96 2.2,-4.39 0.17,-0.34 0.34,-0.67 0.51,-1 1.53,-3.01 3.01,-5.89 4.42,-8.59 1.21,-2.31 2.36005,-4.49 3.45,-6.5 2.64,-4.88 4.88,-8.77 6.54,-11.23 a 55.25656,55.25656 0 0 1 29.28,-22.21 l 0.3,-0.08 0.21,0.09 20.45,-6.28 2.99,-0.92 2.01,-0.62 7.08,-5.39 3.85,-2.93 3.61,-2.75 7.06,-5.37 43.71,2.69 8.51,20.49 19.06,6.97 0.33,-0.15 0.29,-0.12 0.3,0.08 a 55.306,55.306 0 0 1 29.28,22.21 c 0.93994,1.41 2.08,3.27 3.37,5.52 1.1,1.91 2.3,4.09 3.6,6.5 1.85,3.43005 3.87,7.30005 6.01,11.49 0.47,0.92 0.95,1.86 1.43,2.81 q 1.335,2.63993 2.71,5.38995 c 2.13,4.25 4.33,8.69 6.53,13.2 1.91,3.91 3.84,11.95 5.74,22.18 1.57,8.5 3.13,18.52 4.64,28.95 1.98,13.52 -0.13,29.71 1.66,42.15 0.11,0.79005 0.23,1.56005 0.34,2.33005 z"
     fill="#3f3d56"
     id="path186" />
  <circle
     cx="297.60318"
     cy="193.03069"
     r="50.836449"
     fill="#a0616a"
     id="circle188" />
  <g
     id="g7882">
    <rect
       x="291.62244"
       y="186.93556"
       width="38.3657"
       height="5.7599201"
       rx="2.8799601"
       fill="#e6e6e6"
       id="rect132" />
    <rect
       x="288.30225"
       y="200.41573"
       width="11.00609"
       height="5.7599201"
       rx="2.8799601"
       fill="#e6e6e6"
       id="rect138" />
    <rect
       x="307.62244"
       y="199.93556"
       width="38.3657"
       height="5.7599201"
       rx="2.8799601"
       fill="#e6e6e6"
       id="rect142" />
    <rect
       x="287.30225"
       y="213.41573"
       width="11.00609"
       height="5.7599201"
       rx="2.8799601"
       fill="#e6e6e6"
       id="rect146" />
    <rect
       x="304.30225"
       y="213.41573"
       width="11.00609"
       height="5.7599201"
       rx="2.8799601"
       fill="#e6e6e6"
       id="rect148" />
    <rect
       x="288.30225"
       y="239.10924"
       width="11.00609"
       height="5.7599201"
       rx="2.8799601"
       fill="#e6e6e6"
       id="rect174" />
    <rect
       x="287.30225"
       y="226.10924"
       width="11.00609"
       height="5.7599201"
       rx="2.8799601"
       fill="#e6e6e6"
       id="rect180" />
    <rect
       x="304.30225"
       y="226.10924"
       width="11.00609"
       height="5.7599201"
       rx="2.8799601"
       fill="#e6e6e6"
       id="rect182" />
    <path
       style="fill:#2f2e41;fill-opacity:1;stroke:#2f2e41;stroke-width:0.265439;stroke-opacity:1"
       d="m 299.06835,255.45675 c -1.03682,-2.69531 -1.71267,-7.50669 -2.2098,-15.73172 -0.25483,-4.21613 -0.29209,-5.63872 -0.29299,-11.18575 -0.001,-5.8609 0.0267,-6.79654 0.35662,-12.02759 1.34689,-21.36126 5.10017,-21.3423 6.44266,0.0326 0.28479,4.53448 0.31042,5.5264 0.31042,12.01794 0,6.12152 -0.0342,7.64846 -0.2541,11.32488 -0.77751,13.00255 -2.69792,19.87174 -4.35281,15.56967 z"
       id="path7347" />
    <path
       style="fill:#2f2e41;fill-opacity:1;stroke:#2f2e41;stroke-width:0.265439;stroke-opacity:1"
       d="m 304.94045,256.90345 c -1.03682,-2.69531 -1.71267,-7.50669 -2.2098,-15.73172 -0.25483,-4.21613 -0.29209,-5.63872 -0.29299,-11.18575 -10e-4,-5.8609 0.0267,-6.79654 0.35662,-12.02759 1.34689,-21.36126 5.10017,-21.3423 6.44266,0.0326 0.28479,4.53448 0.31042,5.5264 0.31042,12.01794 0,6.12152 -0.0342,7.64846 -0.2541,11.32488 -0.77751,13.00255 -2.69792,19.87174 -4.35281,15.56967 z"
       id="path7349" />
    <path
       style="fill:#2f2e41;fill-opacity:1;stroke:#2f2e41;stroke-width:0.265439;stroke-opacity:1"
       d="m 322.33402,254.77783 c -1.03682,-2.69531 -1.71267,-7.50669 -2.2098,-15.73172 -0.25483,-4.21613 -0.29209,-5.63872 -0.29299,-11.18575 -0.001,-5.8609 0.0267,-6.79654 0.35662,-12.02759 1.34689,-21.36126 5.10017,-21.3423 6.44266,0.0326 0.28479,4.53448 0.31042,5.5264 0.31042,12.01794 0,6.12152 -0.0342,7.64846 -0.2541,11.32488 -0.77751,13.00255 -2.69792,19.87174 -4.35281,15.56967 z"
       id="path7355" />
    <path
       style="fill:#2f2e41;fill-opacity:1;stroke:#2f2e41;stroke-width:0.265439;stroke-opacity:1"
       d="m 326.42176,249.89982 c -1.03682,-2.69531 -1.71267,-7.50669 -2.2098,-15.73172 -0.25483,-4.21613 -0.29209,-5.63872 -0.29299,-11.18575 -10e-4,-5.8609 0.0267,-6.79654 0.35662,-12.02759 1.34689,-21.36126 5.10017,-21.3423 6.44266,0.0326 0.28479,4.53448 0.31042,5.5264 0.31042,12.01794 0,6.12152 -0.0342,7.64846 -0.2541,11.32488 -0.77751,13.00255 -2.69792,19.87174 -4.35281,15.56967 z"
       id="path7357" />
    <path
       style="fill:#2f2e41;fill-opacity:1;stroke:#2f2e41;stroke-width:0.265439;stroke-opacity:1"
       d="m 330.36849,247.62964 c -1.03682,-2.69531 -1.71267,-7.50669 -2.2098,-15.73172 -0.25483,-4.21613 -0.29209,-5.63872 -0.29299,-11.18575 -10e-4,-5.8609 0.0267,-6.79654 0.35662,-12.02759 1.34689,-21.36126 5.10017,-21.3423 6.44266,0.0326 0.28479,4.53448 0.31042,5.5264 0.31042,12.01794 0,6.12152 -0.0342,7.64846 -0.2541,11.32488 -0.77751,13.00255 -2.69792,19.87174 -4.35281,15.56967 z"
       id="path7359" />
    <path
       style="fill:#2f2e41;fill-opacity:1;stroke:#2f2e41;stroke-width:0.265439;stroke-opacity:1"
       d="m 333.14695,246.04194 c -1.03682,-2.69531 -1.71267,-7.50669 -2.2098,-15.73172 -0.25483,-4.21613 -0.29209,-5.63872 -0.29299,-11.18575 -10e-4,-5.8609 0.0267,-6.79654 0.35662,-12.02759 1.34689,-21.36126 5.10017,-21.3423 6.44266,0.0326 0.28479,4.53448 0.31042,5.5264 0.31042,12.01794 0,6.12152 -0.0342,7.64846 -0.2541,11.32488 -0.77751,13.00255 -2.69792,19.87174 -4.35281,15.56967 z"
       id="path7361" />
    <path
       style="fill:#2f2e41;fill-opacity:1;stroke:#2f2e41;stroke-width:0.265439;stroke-opacity:1"
       d="m 342.6211,237.15481 c -1.55404,-2.43406 -3.17683,-7.01365 -5.306,-14.97386 -1.09141,-4.08038 -1.41192,-5.4669 -2.52022,-10.90208 -1.17105,-5.74272 -1.3307,-6.66505 -2.05175,-11.85666 -2.94479,-21.20014 0.73672,-21.93087 6.31948,-1.25427 1.18432,4.38634 1.40746,5.35317 2.70343,11.71403 1.2221,5.99829 1.49343,7.50132 2.01192,11.14763 1.83398,12.89603 1.32359,20.01032 -1.15685,16.12524 z"
       id="path7461" />
    <path
       style="fill:#2f2e41;fill-opacity:1;stroke:#2f2e41;stroke-width:0.226451;stroke-opacity:1"
       d="m 344.57784,226.00325 c -1.0425,-1.95098 -1.72205,-5.43365 -2.22191,-11.38727 -0.25622,-3.05182 -0.29369,-4.08155 -0.29459,-8.09672 -10e-4,-4.24236 0.0268,-4.91962 0.35857,-8.70607 1.35427,-15.46217 5.12812,-15.44845 6.47797,0.0236 0.28635,3.28224 0.31212,4.00024 0.31212,8.69908 0,4.43102 -0.0344,5.53628 -0.25549,8.19743 -0.78177,9.41179 -2.71271,14.38399 -4.37667,11.26997 z"
       id="path7463" />
    <path
       style="fill:#2f2e41;fill-opacity:1;stroke:#2f2e41;stroke-width:0.265439;stroke-opacity:1"
       d="m 337.98908,244.2489 c -1.18968,-2.63142 -2.14034,-7.39612 -3.10833,-15.57911 -0.49619,-4.19458 -0.61497,-5.61269 -0.93398,-11.15054 -0.3371,-5.8512 -0.3631,-6.78688 -0.33371,-12.02825 0.11967,-21.40334 3.86787,-21.59965 6.43393,-0.33692 0.54436,4.51069 0.62683,5.49951 0.9991,11.98036 0.35105,6.11145 0.40447,7.63784 0.39577,11.32082 -0.0306,13.02574 -1.5539,19.99375 -3.45278,15.79367 z"
       id="path7821" />
    <path
       style="fill:#2f2e41;fill-opacity:1;stroke:#2f2e41;stroke-width:0.226451;stroke-opacity:1"
       d="m 351.73093,207.03885 c -1.61907,-1.50722 -3.39177,-4.58103 -5.79616,-10.05044 -1.23249,-2.8036 -1.60201,-3.76548 -2.90554,-7.56316 -1.37732,-4.01256 -1.57075,-4.66221 -2.48539,-8.35147 -3.73548,-15.06516 -0.16131,-16.27656 6.13522,-2.07937 1.33574,3.01179 1.59306,3.68259 3.11753,8.12726 1.4376,4.19134 1.76364,5.24797 2.41788,7.83689 2.31405,9.15633 2.10073,14.48603 -0.48353,12.08031 z"
       id="path7857" />
    <path
       style="fill:#2f2e41;fill-opacity:1;stroke:#2f2e41;stroke-width:0.226451;stroke-opacity:1"
       d="m 349.74631,214.5804 c -1.61907,-1.50722 -3.39177,-4.58103 -5.79616,-10.05044 -1.23249,-2.8036 -1.60201,-3.76548 -2.90554,-7.56316 -1.37732,-4.01256 -1.57075,-4.66221 -2.48539,-8.35147 -3.73548,-15.06516 -0.16131,-16.27656 6.13522,-2.07937 1.33574,3.01179 1.59306,3.68259 3.11753,8.12726 1.4376,4.19134 1.76364,5.24797 2.41788,7.83689 2.31405,9.15633 2.10073,14.48603 -0.48353,12.08031 z"
       id="path7859" />
  </g>
  <polygon
     points="214.817,442.504 222.32,470.8 206.32,475.296 "
     opacity="0.2"
     id="polygon192"
     transform="translate(7.9881306,-95.857567)" />
  <path
     d="m 440.41813,358.07243 c -3.04,41.88 0.11,60.32 -16.67,94.85 a 286.15918,286.15918 0 0 1 -47.52,18.22 q -2.55,0.72 -5.11,1.4 a 288.58782,288.58782 0 0 1 -65.84,9.49 c -1.16,0.03 -2.3,0.05 -3.4,0.07 -0.39,0.01 -0.77,0.02 -1.15,0.02 -1.25,0.01 -2.49,0.02 -3.74,0.02 a 289.27116,289.27116 0 0 1 -69.54,-8.43 q -3.42,-0.84 -6.81,-1.77 a 285.47262,285.47262 0 0 1 -34.97,-12.03 q -9,-3.75 -17.68,-8.09 c -1.31,-0.66 -2.62,-1.32 -3.91,-2 -6.63,-11.66 -10.4,-25.84 -10.48,-42.88 4.59,-29.36 276.68,-74.19 286.82,-48.87 z"
     fill="#2f2e41"
     id="path194" />
  <path
     d="m 440.41025,365.2446 c 0.15527,-2.59271 0.32886,-5.27093 0.53131,-8.05987 -10.14,-25.32 -282.23,19.51 -286.82,48.87 0.0126,2.69184 0.12775,5.30414 0.32129,7.85456 11.11559,-28.97829 269.60473,-71.58632 285.9674,-48.66469 z"
     opacity="0.2"
     id="path196" />
  <path
     d="m 171.08365,246.29405 a 6.36455,6.36455 0 0 0 -6.75274,-6.81562 5.8541,5.8541 0 0 0 -1.00507,0.12575 l -39.7621,8.98257 a 6.54762,6.54762 0 0 0 -4.20873,3.23509 8.18371,8.18371 0 0 0 -1.72738,0.25112 9.6613316,9.6613316 0 0 0 4.2714,18.84464 9.79394,9.79394 0 0 0 3.89453,-1.88439 l 13.474,37.9406 a 6.3285,6.3285 0 0 0 6.941,3.04646 l 25.84869,-5.84179 a 6.41623,6.41623 0 0 0 4.93088,-5.71623 z m -49.78137,21.92253 a 6.91049,6.91049 0 0 1 -3.0779,-13.47385 c 0.12556,-0.0314 0.25132,0 0.37688,-0.0314 a 6.50647,6.50647 0 0 0 0.84807,3.26634 l 4.93085,8.60569 a 6.50519,6.50519 0 0 1 -3.0779,1.63326 z"
     fill="#2f2e41"
     id="path198" />
  <path
     d="m 164.33091,239.47843 c 0.37688,5.02535 -8.22881,10.80427 -19.75539,13.09716 -10.58459,2.16714 -20.06959,0.65944 -22.73936,-3.29777 a 6.02524,6.02524 0 0 1 1.72758,-0.69107 l 39.7621,-8.98257 a 5.8541,5.8541 0 0 1 1.00507,-0.12575 z"
     fill="#3f3d56"
     id="path200" />
  <path
     d="m 136.83146,367.04767 22.33367,-11.16681 -18.6114,-50.25079 -4.90493,-25.342 a 19.16137,19.16137 0 0 0 -31.28219,-10.90731 v 0 a 19.16136,19.16136 0 0 0 -2.49251,26.51833 l 18.20719,22.75891 z"
     fill="#a0616a"
     id="path202" />
  <path
     d="m 159.16513,346.57516 -29.77821,14.889 22.59854,70.80908 a 30.9768,30.9768 0 0 0 22.33567,20.7164 v 0 a 30.97681,30.97681 0 0 0 33.73743,-14.197 l 59.92487,-102.71393 a 31.62026,31.62026 0 0 0 -10.19564,-42.982 v 0 a 31.62037,31.62037 0 0 0 -45.29613,12.76511 l -36.576,77.93632 z"
     fill="#3f3d56"
     id="path204" />
  <path
     d="m 149.95493,282.58384 a 0.49632,0.49632 0 0 1 -0.1626,-0.0274 l -6.50147,-2.23828 a 0.49923,0.49923 0 0 1 -0.20556,-0.81055 l 4.83545,-5.26464 a 0.49972,0.49972 0 1 1 0.73633,0.67578 l -4.31885,4.70215 5.77929,1.99023 a 0.49991,0.49991 0 0 1 -0.16259,0.97266 z"
     fill="#65ff63"
     id="path206" />
  <path
     d="m 158.86655,280.75962 a 0.5,0.5 0 0 1 -0.34766,-0.85938 l 4.39453,-4.249 -5.90332,-2.43262 a 0.49963,0.49963 0 1 1 0.38086,-0.92383 l 6.60938,2.72364 a 0.49951,0.49951 0 0 1 0.15722,0.82129 l -4.94336,4.77929 a 0.49966,0.49966 0 0 1 -0.34765,0.14061 z"
     fill="#65ff63"
     id="path208" />
  <path
     d="m 151.31967,285.64243 a 0.48228,0.48228 0 0 1 -0.147,-0.0225 0.49976,0.49976 0 0 1 -0.33105,-0.625 l 4.61474,-15 a 0.50026,0.50026 0 0 1 0.95606,0.29492 l -4.61475,15 a 0.50035,0.50035 0 0 1 -0.478,0.35254 z"
     fill="#65ff63"
     id="path210" />
  <path
     style="fill:#2f2e41;fill-opacity:1;stroke:#2f2e41;stroke-opacity:1"
     d="m 827.47754,124.25382 3.96555,72.7017"
     id="path7241" />
  <path
     style="fill:#2f2e41;fill-opacity:1;stroke:#2f2e41;stroke-width:1.32185;stroke-opacity:1"
     d="m 282.75534,240.80004 c -14.45545,-4.79421 -23.87812,-13.35231 -30.80921,-27.98233 -3.55285,-7.4993 -4.07238,-10.02969 -4.08498,-19.8963 -0.0133,-10.42489 0.37346,-12.08914 4.97203,-21.3937 18.77849,-37.9957 71.1072,-37.96196 89.82433,0.0579 3.97067,8.06559 4.32788,9.82993 4.32788,21.37654 0,10.88847 -0.47766,13.60448 -3.54263,20.14378 -10.84004,23.1279 -37.61474,35.34626 -60.68742,27.69409 z"
     id="path7299" />
  <path
     style="fill:#2f2e41;fill-opacity:1;stroke:#2f2e41;stroke-width:0.265439;stroke-opacity:1"
     d="m 249.83557,239.91391 c -1.03682,-2.69531 -1.71267,-7.50669 -2.2098,-15.73172 -0.25483,-4.21613 -0.29209,-5.63872 -0.29299,-11.18575 -0.001,-5.8609 0.0267,-6.79654 0.35662,-12.02759 1.34689,-21.36126 5.10017,-21.3423 6.44266,0.0326 0.28479,4.53448 0.31042,5.5264 0.31042,12.01794 0,6.12152 -0.0342,7.64846 -0.2541,11.32488 -0.77751,13.00255 -2.69792,19.87174 -4.35281,15.56967 z"
     id="path7317" />
  <path
     style="fill:#2f2e41;fill-opacity:1;stroke:#2f2e41;stroke-width:0.265439;stroke-opacity:1"
     d="m 249.83557,239.91391 c -1.03682,-2.69531 -1.71267,-7.50669 -2.2098,-15.73172 -0.25483,-4.21613 -0.29209,-5.63872 -0.29299,-11.18575 -0.001,-5.8609 0.0267,-6.79654 0.35662,-12.02759 1.34689,-21.36126 5.10017,-21.3423 6.44266,0.0326 0.28479,4.53448 0.31042,5.5264 0.31042,12.01794 0,6.12152 -0.0342,7.64846 -0.2541,11.32488 -0.77751,13.00255 -2.69792,19.87174 -4.35281,15.56967 z"
     id="path7319" />
  <path
     style="fill:#2f2e41;fill-opacity:1;stroke:#2f2e41;stroke-width:0.265439;stroke-opacity:1"
     d="m 249.83557,239.91391 c -1.03682,-2.69531 -1.71267,-7.50669 -2.2098,-15.73172 -0.25483,-4.21613 -0.29209,-5.63872 -0.29299,-11.18575 -0.001,-5.8609 0.0267,-6.79654 0.35662,-12.02759 1.34689,-21.36126 5.10017,-21.3423 6.44266,0.0326 0.28479,4.53448 0.31042,5.5264 0.31042,12.01794 0,6.12152 -0.0342,7.64846 -0.2541,11.32488 -0.77751,13.00255 -2.69792,19.87174 -4.35281,15.56967 z"
     id="path7321" />
  <path
     style="fill:#2f2e41;fill-opacity:1;stroke:#2f2e41;stroke-width:0.265439;stroke-opacity:1"
     d="m 249.83557,239.91391 c -1.03682,-2.69531 -1.71267,-7.50669 -2.2098,-15.73172 -0.25483,-4.21613 -0.29209,-5.63872 -0.29299,-11.18575 -0.001,-5.8609 0.0267,-6.79654 0.35662,-12.02759 1.34689,-21.36126 5.10017,-21.3423 6.44266,0.0326 0.28479,4.53448 0.31042,5.5264 0.31042,12.01794 0,6.12152 -0.0342,7.64846 -0.2541,11.32488 -0.77751,13.00255 -2.69792,19.87174 -4.35281,15.56967 z"
     id="path7323" />
  <path
     style="fill:#2f2e41;fill-opacity:1;stroke:#2f2e41;stroke-width:0.265439;stroke-opacity:1"
     d="m 249.83557,239.91391 c -1.03682,-2.69531 -1.71267,-7.50669 -2.2098,-15.73172 -0.25483,-4.21613 -0.29209,-5.63872 -0.29299,-11.18575 -0.001,-5.8609 0.0267,-6.79654 0.35662,-12.02759 1.34689,-21.36126 5.10017,-21.3423 6.44266,0.0326 0.28479,4.53448 0.31042,5.5264 0.31042,12.01794 0,6.12152 -0.0342,7.64846 -0.2541,11.32488 -0.77751,13.00255 -2.69792,19.87174 -4.35281,15.56967 z"
     id="path7325" />
  <path
     style="fill:#2f2e41;fill-opacity:1;stroke:#2f2e41;stroke-width:0.265439;stroke-opacity:1"
     d="m 249.83557,239.91391 c -1.03682,-2.69531 -1.71267,-7.50669 -2.2098,-15.73172 -0.25483,-4.21613 -0.29209,-5.63872 -0.29299,-11.18575 -0.001,-5.8609 0.0267,-6.79654 0.35662,-12.02759 1.34689,-21.36126 5.10017,-21.3423 6.44266,0.0326 0.28479,4.53448 0.31042,5.5264 0.31042,12.01794 0,6.12152 -0.0342,7.64846 -0.2541,11.32488 -0.77751,13.00255 -2.69792,19.87174 -4.35281,15.56967 z"
     id="path7327" />
  <path
     style="fill:#2f2e41;fill-opacity:1;stroke:#2f2e41;stroke-width:0.265439;stroke-opacity:1"
     d="m 249.83557,239.91391 c -1.03682,-2.69531 -1.71267,-7.50669 -2.2098,-15.73172 -0.25483,-4.21613 -0.29209,-5.63872 -0.29299,-11.18575 -0.001,-5.8609 0.0267,-6.79654 0.35662,-12.02759 1.34689,-21.36126 5.10017,-21.3423 6.44266,0.0326 0.28479,4.53448 0.31042,5.5264 0.31042,12.01794 0,6.12152 -0.0342,7.64846 -0.2541,11.32488 -0.77751,13.00255 -2.69792,19.87174 -4.35281,15.56967 z"
     id="path7329" />
  <path
     style="fill:#2f2e41;fill-opacity:1;stroke:#2f2e41;stroke-width:0.265439;stroke-opacity:1"
     d="m 249.83557,239.91391 c -1.03682,-2.69531 -1.71267,-7.50669 -2.2098,-15.73172 -0.25483,-4.21613 -0.29209,-5.63872 -0.29299,-11.18575 -0.001,-5.8609 0.0267,-6.79654 0.35662,-12.02759 1.34689,-21.36126 5.10017,-21.3423 6.44266,0.0326 0.28479,4.53448 0.31042,5.5264 0.31042,12.01794 0,6.12152 -0.0342,7.64846 -0.2541,11.32488 -0.77751,13.00255 -2.69792,19.87174 -4.35281,15.56967 z"
     id="path7331" />
  <path
     style="fill:#2f2e41;fill-opacity:1;stroke:#2f2e41;stroke-width:0.265439;stroke-opacity:1"
     d="m 257.06907,240.87838 c -1.03682,-2.69531 -1.71267,-7.50669 -2.2098,-15.73172 -0.25483,-4.21613 -0.29209,-5.63872 -0.29299,-11.18575 -0.001,-5.8609 0.0267,-6.79654 0.35662,-12.02759 1.34689,-21.36126 5.10017,-21.3423 6.44266,0.0326 0.28479,4.53448 0.31042,5.5264 0.31042,12.01794 0,6.12152 -0.0342,7.64846 -0.2541,11.32488 -0.77751,13.00255 -2.69792,19.87174 -4.35281,15.56967 z"
     id="path7333" />
  <path
     style="fill:#2f2e41;fill-opacity:1;stroke:#2f2e41;stroke-width:0.265439;stroke-opacity:1"
     d="m 262.85587,244.73624 c -1.03682,-2.69531 -1.71267,-7.50669 -2.2098,-15.73172 -0.25483,-4.21613 -0.29209,-5.63872 -0.29299,-11.18575 -10e-4,-5.8609 0.0267,-6.79654 0.35662,-12.02759 1.34689,-21.36126 5.10017,-21.3423 6.44266,0.0326 0.28479,4.53448 0.31042,5.5264 0.31042,12.01794 0,6.12152 -0.0342,7.64846 -0.2541,11.32488 -0.77751,13.00255 -2.69792,19.87174 -4.35281,15.56967 z"
     id="path7335" />
  <path
     style="fill:#2f2e41;fill-opacity:1;stroke:#2f2e41;stroke-width:0.265439;stroke-opacity:1"
     d="m 269.60713,247.14741 c -1.03682,-2.69531 -1.71267,-7.50669 -2.2098,-15.73172 -0.25483,-4.21613 -0.29209,-5.63872 -0.29299,-11.18575 -10e-4,-5.8609 0.0267,-6.79654 0.35662,-12.02759 1.34689,-21.36126 5.10017,-21.3423 6.44266,0.0326 0.28479,4.53448 0.31042,5.5264 0.31042,12.01794 0,6.12152 -0.0342,7.64846 -0.2541,11.32488 -0.77751,13.00255 -2.69792,19.87174 -4.35281,15.56967 z"
     id="path7337" />
  <path
     style="fill:#2f2e41;fill-opacity:1;stroke:#2f2e41;stroke-width:0.265439;stroke-opacity:1"
     d="m 269.60713,247.14741 c -1.03682,-2.69531 -1.71267,-7.50669 -2.2098,-15.73172 -0.25483,-4.21613 -0.29209,-5.63872 -0.29299,-11.18575 -10e-4,-5.8609 0.0267,-6.79654 0.35662,-12.02759 1.34689,-21.36126 5.10017,-21.3423 6.44266,0.0326 0.28479,4.53448 0.31042,5.5264 0.31042,12.01794 0,6.12152 -0.0342,7.64846 -0.2541,11.32488 -0.77751,13.00255 -2.69792,19.87174 -4.35281,15.56967 z"
     id="path7339" />
  <path
     style="fill:#2f2e41;fill-opacity:1;stroke:#2f2e41;stroke-width:0.265439;stroke-opacity:1"
     d="m 269.60713,247.14741 c -1.03682,-2.69531 -1.71267,-7.50669 -2.2098,-15.73172 -0.25483,-4.21613 -0.29209,-5.63872 -0.29299,-11.18575 -10e-4,-5.8609 0.0267,-6.79654 0.35662,-12.02759 1.34689,-21.36126 5.10017,-21.3423 6.44266,0.0326 0.28479,4.53448 0.31042,5.5264 0.31042,12.01794 0,6.12152 -0.0342,7.64846 -0.2541,11.32488 -0.77751,13.00255 -2.69792,19.87174 -4.35281,15.56967 z"
     id="path7341" />
  <path
     style="fill:#2f2e41;fill-opacity:1;stroke:#2f2e41;stroke-width:0.265439;stroke-opacity:1"
     d="m 269.60713,247.14741 c -1.03682,-2.69531 -1.71267,-7.50669 -2.2098,-15.73172 -0.25483,-4.21613 -0.29209,-5.63872 -0.29299,-11.18575 -10e-4,-5.8609 0.0267,-6.79654 0.35662,-12.02759 1.34689,-21.36126 5.10017,-21.3423 6.44266,0.0326 0.28479,4.53448 0.31042,5.5264 0.31042,12.01794 0,6.12152 -0.0342,7.64846 -0.2541,11.32488 -0.77751,13.00255 -2.69792,19.87174 -4.35281,15.56967 z"
     id="path7343" />
  <path
     style="fill:#2f2e41;fill-opacity:1;stroke:#2f2e41;stroke-width:0.265439;stroke-opacity:1"
     d="m 269.60713,247.14741 c -1.03682,-2.69531 -1.71267,-7.50669 -2.2098,-15.73172 -0.25483,-4.21613 -0.29209,-5.63872 -0.29299,-11.18575 -10e-4,-5.8609 0.0267,-6.79654 0.35662,-12.02759 1.34689,-21.36126 5.10017,-21.3423 6.44266,0.0326 0.28479,4.53448 0.31042,5.5264 0.31042,12.01794 0,6.12152 -0.0342,7.64846 -0.2541,11.32488 -0.77751,13.00255 -2.69792,19.87174 -4.35281,15.56967 z"
     id="path7345" />
  <path
     style="fill:#2f2e41;fill-opacity:1;stroke:#2f2e41;stroke-width:0.265439;stroke-opacity:1"
     d="m 311.3801,260.33477 c -1.03682,-2.69531 -1.71267,-7.50669 -2.2098,-15.73172 -0.25483,-4.21613 -0.29209,-5.63872 -0.29299,-11.18575 -0.001,-5.8609 0.0267,-6.79654 0.35662,-12.02759 1.34689,-21.36126 5.10017,-21.3423 6.44266,0.0326 0.28479,4.53448 0.31042,5.5264 0.31042,12.01794 0,6.12152 -0.0342,7.64846 -0.2541,11.32488 -0.77751,13.00255 -2.69792,19.87174 -4.35281,15.56967 z"
     id="path7351" />
  <path
     style="fill:#2f2e41;fill-opacity:1;stroke:#2f2e41;stroke-width:0.265439;stroke-opacity:1"
     d="m 317.05552,257.86792 c -1.03682,-2.69531 -1.71267,-7.50669 -2.2098,-15.73172 -0.25483,-4.21613 -0.29209,-5.63872 -0.29299,-11.18575 -10e-4,-5.8609 0.0267,-6.79654 0.35662,-12.02759 1.34689,-21.36126 5.10017,-21.3423 6.44266,0.0326 0.28479,4.53448 0.31042,5.5264 0.31042,12.01794 0,6.12152 -0.0342,7.64846 -0.2541,11.32488 -0.77751,13.00255 -2.69792,19.87174 -4.35281,15.56967 z"
     id="path7353" />
  <path
     style="fill:#2f2e41;fill-opacity:1;stroke:#2f2e41;stroke-width:0.226451;stroke-opacity:1"
     d="m 247.33153,220.84324 c -1.0425,-1.95098 -1.72205,-5.43365 -2.22191,-11.38727 -0.25622,-3.05182 -0.29369,-4.08155 -0.29459,-8.09672 -0.001,-4.24236 0.0268,-4.91962 0.35857,-8.70607 1.35427,-15.46217 5.12812,-15.44845 6.47797,0.0236 0.28635,3.28224 0.31212,4.00024 0.31212,8.69908 0,4.43102 -0.0344,5.53628 -0.25549,8.19743 -0.78177,9.41179 -2.71271,14.38399 -4.37667,11.26997 z"
     id="path7855" />
  <path
     style="fill:#2f2e41;fill-opacity:1;stroke:#2f2e41;stroke-width:0.226451;stroke-opacity:1"
     d="m 245.34204,227.02335 c 1.61907,-1.50722 3.39177,-4.58103 5.79616,-10.05044 1.23249,-2.8036 1.60201,-3.76548 2.90554,-7.56316 1.37732,-4.01256 1.57075,-4.66221 2.48539,-8.35147 3.73548,-15.06516 0.16131,-16.27656 -6.13522,-2.07937 -1.33574,3.01179 -1.59306,3.68259 -3.11753,8.12726 -1.4376,4.19134 -1.76364,5.24797 -2.41788,7.83689 -2.31405,9.15633 -2.10073,14.48603 0.48353,12.08031 z"
     id="path7918" />
  <g
     id="g7997"
     transform="translate(197.79525,14.347842)">
    <path
       style="fill:#2f2e41;fill-opacity:1;stroke:#2f2e41;stroke-width:0.265439;stroke-opacity:1"
       d="m 96.62241,239.05922 c 1.03682,-2.69531 1.71267,-7.50669 2.2098,-15.73172 0.25483,-4.21613 0.29209,-5.63872 0.29299,-11.18575 10e-4,-5.8609 -0.0267,-6.79654 -0.35662,-12.02759 -1.34689,-21.36126 -5.10017,-21.3423 -6.44266,0.0326 -0.28479,4.53448 -0.31042,5.5264 -0.31042,12.01794 0,6.12152 0.0342,7.64846 0.2541,11.32488 0.77751,13.00255 2.69792,19.87174 4.35281,15.56967 z"
       id="path7900" />
    <path
       style="fill:#2f2e41;fill-opacity:1;stroke:#2f2e41;stroke-width:0.265439;stroke-opacity:1"
       d="m 90.75031,240.50592 c 1.03682,-2.69531 1.71267,-7.50669 2.2098,-15.73172 0.25483,-4.21613 0.29209,-5.63872 0.29299,-11.18575 10e-4,-5.8609 -0.0267,-6.79654 -0.35662,-12.02759 -1.34689,-21.36126 -5.10017,-21.3423 -6.44266,0.0326 -0.28479,4.53448 -0.31042,5.5264 -0.31042,12.01794 0,6.12152 0.0342,7.64846 0.2541,11.32488 0.77751,13.00255 2.69792,19.87174 4.35281,15.56967 z"
       id="path7902" />
    <path
       style="fill:#2f2e41;fill-opacity:1;stroke:#2f2e41;stroke-width:0.265439;stroke-opacity:1"
       d="m 73.35674,238.3803 c 1.03682,-2.69531 1.71267,-7.50669 2.2098,-15.73172 0.25483,-4.21613 0.29209,-5.63872 0.29299,-11.18575 10e-4,-5.8609 -0.0267,-6.79654 -0.35662,-12.02759 -1.34689,-21.36126 -5.10017,-21.3423 -6.44266,0.0326 -0.28479,4.53448 -0.31042,5.5264 -0.31042,12.01794 0,6.12152 0.0342,7.64846 0.2541,11.32488 0.77751,13.00255 2.69792,19.87174 4.35281,15.56967 z"
       id="path7904" />
    <path
       style="fill:#2f2e41;fill-opacity:1;stroke:#2f2e41;stroke-width:0.265439;stroke-opacity:1"
       d="m 69.269,233.50229 c 1.03682,-2.69531 1.71267,-7.50669 2.2098,-15.73172 0.25483,-4.21613 0.29209,-5.63872 0.29299,-11.18575 0.001,-5.8609 -0.0267,-6.79654 -0.35662,-12.02759 -1.34689,-21.36126 -5.10017,-21.3423 -6.44266,0.0326 -0.28479,4.53448 -0.31042,5.5264 -0.31042,12.01794 0,6.12152 0.0342,7.64846 0.2541,11.32488 0.77751,13.00255 2.69792,19.87174 4.35281,15.56967 z"
       id="path7906" />
    <path
       style="fill:#2f2e41;fill-opacity:1;stroke:#2f2e41;stroke-width:0.265439;stroke-opacity:1"
       d="m 65.32227,231.23211 c 1.03682,-2.69531 1.71267,-7.50669 2.2098,-15.73172 0.25483,-4.21613 0.29209,-5.63872 0.29299,-11.18575 0.001,-5.8609 -0.0267,-6.79654 -0.35662,-12.02759 -1.34689,-21.36126 -5.10017,-21.3423 -6.44266,0.0326 -0.28479,4.53448 -0.31042,5.5264 -0.31042,12.01794 0,6.12152 0.0342,7.64846 0.2541,11.32488 0.77751,13.00255 2.69792,19.87174 4.35281,15.56967 z"
       id="path7908" />
    <path
       style="fill:#2f2e41;fill-opacity:1;stroke:#2f2e41;stroke-width:0.265439;stroke-opacity:1"
       d="m 62.54381,229.64441 c 1.03682,-2.69531 1.71267,-7.50669 2.2098,-15.73172 0.25483,-4.21613 0.29209,-5.63872 0.29299,-11.18575 0.001,-5.8609 -0.0267,-6.79654 -0.35662,-12.02759 -1.34689,-21.36126 -5.10017,-21.3423 -6.44266,0.0326 -0.28479,4.53448 -0.31042,5.5264 -0.31042,12.01794 0,6.12152 0.0342,7.64846 0.2541,11.32488 0.77751,13.00255 2.69792,19.87174 4.35281,15.56967 z"
       id="path7910" />
    <path
       style="fill:#2f2e41;fill-opacity:1;stroke:#2f2e41;stroke-width:0.265439;stroke-opacity:1"
       d="m 53.06966,220.75728 c 1.55404,-2.43406 3.17683,-7.01365 5.306,-14.97386 1.09141,-4.08038 1.41192,-5.4669 2.52022,-10.90208 1.17105,-5.74272 1.3307,-6.66505 2.05175,-11.85666 2.94479,-21.20014 -0.73672,-21.93087 -6.31948,-1.25427 -1.18432,4.38634 -1.40746,5.35317 -2.70343,11.71403 -1.2221,5.99829 -1.49343,7.50132 -2.01192,11.14763 -1.83398,12.89603 -1.32359,20.01032 1.15685,16.12524 z"
       id="path7912" />
    <path
       style="fill:#2f2e41;fill-opacity:1;stroke:#2f2e41;stroke-width:0.226451;stroke-opacity:1"
       d="m 51.11292,209.60572 c 1.0425,-1.95098 1.72205,-5.43365 2.22191,-11.38727 0.25622,-3.05182 0.29369,-4.08155 0.29459,-8.09672 10e-4,-4.24236 -0.0268,-4.91962 -0.35857,-8.70607 -1.35427,-15.46217 -5.12812,-15.44845 -6.47797,0.0236 -0.28635,3.28224 -0.31212,4.00024 -0.31212,8.69908 0,4.43102 0.0344,5.53628 0.25549,8.19743 0.78177,9.41179 2.71271,14.38399 4.37667,11.26997 z"
       id="path7914" />
    <path
       style="fill:#2f2e41;fill-opacity:1;stroke:#2f2e41;stroke-width:0.265439;stroke-opacity:1"
       d="m 57.70168,227.85137 c 1.18968,-2.63142 2.14034,-7.39612 3.10833,-15.57911 0.49619,-4.19458 0.61497,-5.61269 0.93398,-11.15054 0.3371,-5.8512 0.3631,-6.78688 0.33371,-12.02825 -0.11967,-21.40334 -3.86787,-21.59965 -6.43393,-0.33692 -0.54436,4.51069 -0.62683,5.49951 -0.9991,11.98036 -0.35105,6.11145 -0.40447,7.63784 -0.39577,11.32082 0.0306,13.02574 1.5539,19.99375 3.45278,15.79367 z"
       id="path7916" />
    <path
       style="fill:#2f2e41;fill-opacity:1;stroke:#2f2e41;stroke-width:0.226451;stroke-opacity:1"
       d="m 45.94445,198.18287 c 1.61907,-1.50722 3.39177,-4.58103 5.79616,-10.05044 1.23249,-2.8036 1.60201,-3.76548 2.90554,-7.56316 1.37732,-4.01256 1.57075,-4.66221 2.48539,-8.35147 3.73548,-15.06516 0.16131,-16.27656 -6.13522,-2.07937 -1.33574,3.01179 -1.59306,3.68259 -3.11753,8.12726 -1.4376,4.19134 -1.76364,5.24797 -2.41788,7.83689 -2.31405,9.15633 -2.10073,14.48603 0.48353,12.08031 z"
       id="path7920" />
    <path
       style="fill:#2f2e41;fill-opacity:1;stroke:#2f2e41;stroke-width:0.265439;stroke-opacity:1"
       d="m 79.989429,240.50592 c 1.03682,-2.69531 1.71267,-7.50669 2.2098,-15.73172 0.25483,-4.21613 0.29209,-5.63872 0.29299,-11.18575 10e-4,-5.8609 -0.0267,-6.79654 -0.35662,-12.02759 -1.34689,-21.36126 -5.10017,-21.3423 -6.44266,0.0326 -0.28479,4.53448 -0.31042,5.5264 -0.31042,12.01794 0,6.12152 0.0342,7.64846 0.2541,11.32488 0.77751,13.00255 2.69792,19.87174 4.35281,15.56967 z"
       id="path7978" />
    <path
       style="fill:#2f2e41;fill-opacity:1;stroke:#2f2e41;stroke-width:0.265439;stroke-opacity:1"
       d="m 85.113658,242.55561 c 1.03682,-2.69531 1.71267,-7.50669 2.2098,-15.73172 0.25483,-4.21613 0.29209,-5.63872 0.29299,-11.18575 10e-4,-5.8609 -0.0267,-6.79654 -0.35662,-12.02759 -1.34689,-21.36126 -5.10017,-21.3423 -6.44266,0.0326 -0.28479,4.53448 -0.31042,5.5264 -0.31042,12.01794 0,6.12152 0.0342,7.64846 0.2541,11.32488 0.77751,13.00255 2.69792,19.87174 4.35281,15.56967 z"
       id="path7980" />
    <path
       style="fill:#2f2e41;fill-opacity:1;stroke:#2f2e41;stroke-width:0.265439;stroke-opacity:1"
       d="m 77.427314,242.55561 c 1.03682,-2.69531 1.71267,-7.50669 2.2098,-15.73172 0.25483,-4.21613 0.29209,-5.63872 0.29299,-11.18575 0.001,-5.8609 -0.0267,-6.79654 -0.35662,-12.02759 -1.34689,-21.36126 -5.10017,-21.3423 -6.44266,0.0326 -0.28479,4.53448 -0.31042,5.5264 -0.31042,12.01794 0,6.12152 0.0342,7.64846 0.2541,11.32488 0.77751,13.00255 2.69792,19.87174 4.35281,15.56967 z"
       id="path7982" />
  </g>
</svg>
